#!OML:ASF I:\Actors\actors\Patient Classification 1\Patient 1\Session 1\Subject1.ASF
:FULLY-SPECIFIED
:DEGREES
456
root -0.0548119 17.5548 8.79332 6.05993 32.6673 -8.33356
lowerback -1.91522 1.88226 8.99354
upperback -10.9921 3.22264 1.44475
thorax -10.364 0.924253 -3.67573
lowerneck -7.62553 -6.64927 -6.03809
upperneck 25.2647 -8.98616 3.18527
head 9.65369 -4.35881 1.16322
rclavicle 7.29291e-015 5.48646e-014
rhumerus -17.9293 28.6312 -100.165
rradius 133.11
rwrist 5.53012
rhand 19.5647 -34.5468
rfingers 7.12502
rthumb 44.1294 -58.3813
lclavicle 7.29291e-015 5.48646e-014
lhumerus -25.7242 -28.4102 106.832
lradius 127.727
lwrist 10.1971
lhand -4.76284 -18.4155
lfingers 7.12502
lthumb 21.0213 10.4652
rfemur 1.45952 14.0063 29.6077
rtibia 4.11848
rfoot -32.8255 -43.0435
rtoes 28.4105
lfemur -10.3634 -35.95 -2.72933
ltibia -1.46858
lfoot -1.59148 18.3571
ltoes -23.0309
457
root -0.0489117 17.5628 8.77144 6.32909 31.8572 -8.20446
lowerback -1.88772 1.85145 8.88381
upperback -10.9733 3.17397 1.45639
thorax -10.3671 0.908985 -3.60044
lowerneck -7.88462 -6.53583 -5.89857
upperneck 25.5378 -8.82885 3.10332
head 9.78061 -4.27615 1.11907
rclavicle 1.881e-014 -8.54774e-015
rhumerus -17.6666 28.9278 -99.8313
rradius 133.079
rwrist 5.37026
rhand 19.575 -34.8882
rfingers 7.12502
rthumb 44.139 -58.719
lclavicle 1.881e-014 -8.54774e-015
lhumerus -25.7445 -28.4748 106.795
lradius 127.666
lwrist 9.95859
lhand -4.89795 -18.7521
lfingers 7.12502
lthumb 20.8915 10.143
rfemur 1.27811 14.6816 29.398
rtibia 4.02082
rfoot -32.4941 -43.0588
rtoes 28.1745
lfemur -10.3697 -35.7079 -2.79288
ltibia -1.44264
lfoot -1.68368 18.7069
ltoes -22.1566
458
root -0.0437928 17.5683 8.75027 6.56809 31.1181 -8.16751
lowerback -1.94424 1.79704 8.82849
upperback -10.9373 3.08495 1.47103
thorax -10.3042 0.872787 -3.54589
lowerneck -7.97105 -6.44987 -5.21231
upperneck 25.536 -8.75213 2.79819
head 9.74081 -4.20944 0.908302
rclavicle -9.40376e-014 -1.16289e-014
rhumerus -17.7778 28.5995 -100.142
rradius 133.168
rwrist 5.37871
rhand 20.0741 -35.1709
rfingers 7.12502
rthumb 44.6041 -58.8247
lclavicle -9.40376e-014 -1.16289e-014
lhumerus -25.7097 -28.6187 106.748
lradius 127.596
lwrist 9.90445
lhand -5.27774 -18.8214
lfingers 7.12502
lthumb 20.5265 10.1135
rfemur 1.03382 15.1908 29.2601
rtibia 3.98048
rfoot -31.9613 -43.0804
rtoes 27.7228
lfemur -10.4366 -35.6086 -2.7452
ltibia -1.38913
lfoot -1.76113 19.1639
ltoes -21.8938
459
root -0.0393622 17.5702 8.73216 6.75769 30.4354 -8.12138
lowerback -2.04146 1.74295 8.71231
upperback -10.8634 2.98563 1.48158
thorax -10.1746 0.840428 -3.45967
lowerneck -8.00743 -6.39515 -5.30237
upperneck 25.501 -8.71822 3.02351
head 9.74889 -4.17985 1.0033
rclavicle -6.38596e-015 -1.84373e-014
rhumerus -18.3021 27.6891 -100.935
rradius 133.476
rwrist 5.64761
rhand 21.1591 -34.8645
rfingers 7.12502
rthumb 45.6133 -58.1183
lclavicle -6.38596e-015 -1.84373e-014
lhumerus -25.68 -28.8257 106.789
lradius 127.565
lwrist 9.89249
lhand -5.76714 -18.7263
lfingers 7.12502
lthumb 20.0562 10.2585
rfemur 0.951278 15.7928 29.1715
rtibia 3.78744
rfoot -31.5165 -43.2515
rtoes 27.3555
lfemur -10.3982 -35.6885 -2.78089
ltibia -1.37167
lfoot -1.68431 19.7858
ltoes -22.2752
460
root -0.0367911 17.5704 8.71326 6.84241 29.8254 -8.0972
lowerback -1.97983 1.63471 8.59582
upperback -10.8009 2.83662 1.53735
thorax -10.1618 0.780291 -3.32833
lowerneck -7.92509 -6.38413 -5.37083
upperneck 25.3058 -8.72354 3.14314
head 9.67282 -4.18207 1.05922
rclavicle -5.03546e-014 -5.08889e-014
rhumerus -18.3141 27.6059 -100.987
rradius 133.54
rwrist 5.82569
rhand 21.9269 -34.2293
rfingers 7.12502
rthumb 46.3257 -57.1869
lclavicle -5.03546e-014 -5.08889e-014
lhumerus -25.7047 -28.9423 106.817
lradius 127.56
lwrist 9.78356
lhand -6.21433 -18.8247
lfingers 7.12502
lthumb 19.6263 10.2046
rfemur 1.04545 16.6182 29.169
rtibia 3.46945
rfoot -31.4004 -43.5957
rtoes 27.3562
lfemur -10.2207 -35.8784 -2.87119
ltibia -1.43019
lfoot -1.61538 20.5125
ltoes -22.415
461
root -0.0357329 17.5678 8.69293 6.84363 29.298 -8.15579
lowerback -1.82925 1.48723 8.56373
upperback -10.7611 2.65311 1.62345
thorax -10.2329 0.693368 -3.21187
lowerneck -7.86682 -6.29965 -5.14177
upperneck 25.1492 -8.62304 3.0516
head 9.5845 -4.12882 1.00534
rclavicle 7.0817e-015 1.92821e-014
rhumerus -17.9645 28.1863 -100.492
rradius 133.452
rwrist 5.80421
rhand 21.6387 -34.16
rfingers 7.12502
rthumb 46.0585 -57.2302
lclavicle 7.0817e-015 1.92821e-014
lhumerus -25.6953 -28.9509 106.776
lradius 127.519
lwrist 9.67895
lhand -6.35068 -18.9481
lfingers 7.12502
lthumb 19.4952 10.0945
rfemur 1.14591 17.3732 29.2518
rtibia 3.2122
rfoot -31.2894 -43.9107
rtoes 27.3017
lfemur -10.0193 -36.1089 -2.88318
ltibia -1.52392
lfoot -1.66708 21.2587
ltoes -22.042
462
root -0.0375408 17.5625 8.67366 6.78138 28.852 -8.36643
lowerback -1.71565 1.37879 8.65859
upperback -10.7358 2.52397 1.69101
thorax -10.2898 0.621719 -3.18683
lowerneck -7.86268 -6.19647 -4.684
upperneck 25.1504 -8.53782 2.95879
head 9.55206 -4.05799 0.908856
rclavicle -4.40308e-014 3.09607e-014
rhumerus -18.4987 27.5446 -101.091
rradius 133.628
rwrist 5.8854
rhand 21.7011 -33.9018
rfingers 7.12502
rthumb 46.1164 -56.9477
lclavicle -4.40308e-014 3.09607e-014
lhumerus -25.7124 -29.0565 106.788
lradius 127.452
lwrist 9.67905
lhand -6.21515 -18.9721
lfingers 7.12502
lthumb 19.6255 10.0573
rfemur 1.18675 17.932 29.4723
rtibia 3.02979
rfoot -31.0531 -44.1367
rtoes 26.9432
lfemur -9.87671 -36.3166 -2.67257
ltibia -1.64561
lfoot -1.75102 21.9424
ltoes -21.4516
463
root -0.0405181 17.5587 8.65342 6.75509 28.4456 -8.52095
lowerback -1.5981 1.34104 8.7293
upperback -10.7403 2.48442 1.65964
thorax -10.3686 0.589234 -3.26054
lowerneck -7.82725 -6.18513 -4.1209
upperneck 25.2134 -8.58496 2.79209
head 9.53324 -4.04607 0.755273
rclavicle -1.66513e-014 -1.27968e-015
rhumerus -18.5792 27.304 -101.121
rradius 133.716
rwrist 5.72567
rhand 21.1333 -33.9275
rfingers 7.12502
rthumb 45.5894 -57.1911
lclavicle -1.66513e-014 -1.27968e-015
lhumerus -25.8137 -29.3237 106.85
lradius 127.391
lwrist 9.74218
lhand -6.45282 -18.9312
lfingers 7.12502
lthumb 19.397 10.1213
rfemur 1.18197 18.331 29.5914
rtibia 2.87546
rfoot -30.8176 -44.221
rtoes 26.6961
lfemur -9.78439 -36.4786 -2.49514
ltibia -1.74524
lfoot -1.7585 22.5312
ltoes -21.1635
464
root -0.042215 17.5583 8.63145 6.81741 28.0168 -8.51615
lowerback -1.49642 1.39242 8.69205
upperback -10.7711 2.55192 1.52311
thorax -10.4507 0.612312 -3.3947
lowerneck -7.65823 -6.27669 -3.39354
upperneck 25.1904 -8.75901 2.44329
head 9.4459 -4.10056 0.504808
rclavicle -5.10007e-014 9.79014e-015
rhumerus -18.2626 27.3831 -100.669
rradius 133.645
rwrist 5.5918
rhand 20.3897 -34.2914
rfingers 7.12502
rthumb 44.898 -57.831
lclavicle -5.10007e-014 9.79014e-015
lhumerus -25.975 -29.7222 106.928
lradius 127.36
lwrist 9.84931
lhand -7.11728 -18.8833
lfingers 7.12502
lthumb 18.758 10.2322
rfemur 1.08686 18.4864 29.4617
rtibia 2.79387
rfoot -30.4943 -44.0046
rtoes 26.5008
lfemur -9.7101 -36.6206 -2.50458
ltibia -1.8015
lfoot -1.67309 23.0702
ltoes -21.3516
465
root -0.0449712 17.5601 8.61042 6.87881 27.5786 -8.48384
lowerback -1.39698 1.47576 8.62869
upperback -10.8004 2.65929 1.36907
thorax -10.5238 0.656709 -3.53629
lowerneck -7.37232 -6.35495 -2.77885
upperneck 25.0385 -8.92638 2.24801
head 9.30273 -4.15011 0.333268
rclavicle 2.90723e-015 -5.04913e-014
rhumerus -18.8929 26.3011 -101.339
rradius 133.792
rwrist 5.83542
rhand 20.9205 -33.9107
rfingers 7.12502
rthumb 45.3916 -57.2543
lclavicle 2.90723e-015 -5.04913e-014
lhumerus -26.1648 -30.1629 107.032
lradius 127.339
lwrist 9.95562
lhand -7.59954 -18.9182
lfingers 7.12502
lthumb 18.2941 10.2415
rfemur 0.968788 18.5462 29.2867
rtibia 2.73581
rfoot -30.085 -43.6982
rtoes 26.1538
lfemur -9.58489 -36.8383 -2.5461
ltibia -1.90713
lfoot -1.58071 23.6647
ltoes -21.4229
466
root -0.0477872 17.5608 8.59109 6.88736 27.2008 -8.4593
lowerback -1.30386 0.925172 8.27885
upperback -10.7718 1.96369 2.0384
thorax -10.6593 0.380701 -2.57536
lowerneck -7.23398 -5.76744 -3.48372
upperneck 25.0042 -7.94861 2.11058
head 9.26135 -3.77694 0.511527
rclavicle -1.56543e-015 3.26007e-014
rhumerus -18.4664 28.8749 -100.694
rradius 133.48
rwrist 5.31284
rhand 20.0587 -34.4804
rfingers 7.12502
rthumb 44.5898 -58.1397
lclavicle -1.56543e-015 3.26007e-014
lhumerus -25.9393 -28.5003 106.973
lradius 127.394
lwrist 9.6735
lhand -7.761 -19.0469
lfingers 7.12502
lthumb 18.1388 10.1273
rfemur 0.918101 18.6001 29.1593
rtibia 2.6689
rfoot -29.7195 -43.4654
rtoes 25.8093
lfemur -9.40737 -37.1107 -2.60315
ltibia -2.02635
lfoot -1.55992 24.249
ltoes -21.1698
467
root -0.0495305 17.5601 8.57348 6.87999 26.8967 -8.47006
lowerback -1.24314 0.986852 8.31002
upperback -10.7013 2.03633 1.92344
thorax -10.6014 0.408817 -2.72295
lowerneck -7.37316 -5.7909 -3.04689
upperneck 25.0482 -8.01624 1.95468
head 9.27775 -3.7829 0.374694
rclavicle -1.10201e-014 1.09232e-013
rhumerus -18.3191 28.525 -100.626
rradius 133.511
rwrist 5.10164
rhand 20.1295 -34.9529
rfingers 7.12502
rthumb 44.6557 -58.5868
lclavicle -1.10201e-014 1.09232e-013
lhumerus -25.8862 -28.8359 106.934
lradius 127.359
lwrist 9.71601
lhand -7.81314 -19.1167
lfingers 7.12502
lthumb 18.0886 10.0621
rfemur 0.884537 18.6361 29.0926
rtibia 2.61155
rfoot -29.414 -43.2719
rtoes 25.5645
lfemur -9.28791 -37.2677 -2.63131
ltibia -2.08519
lfoot -1.52724 24.666
ltoes -21.1143
468
root -0.0506257 17.5601 8.55661 6.85019 26.6147 -8.54159
lowerback -1.22957 1.15552 8.45638
upperback -10.6303 2.24713 1.72652
thorax -10.4945 0.491979 -3.03101
lowerneck -7.55469 -5.92627 -2.59968
upperneck 25.1444 -8.25816 1.84864
head 9.32669 -3.86229 0.232239
rclavicle 8.54463e-015 -3.84276e-014
rhumerus -18.8139 26.9341 -101.246
rradius 133.88
rwrist 5.06397
rhand 21.2625 -35.1425
rfingers 7.12502
rthumb 45.7093 -58.3571
lclavicle 8.54463e-015 -3.84276e-014
lhumerus -25.9338 -29.441 106.987
lradius 127.298
lwrist 9.8429
lhand -7.92979 -19.1873
lfingers 7.12502
lthumb 17.9764 10.0019
rfemur 0.859061 18.7257 29.1069
rtibia 2.54986
rfoot -29.1683 -43.1221
rtoes 25.5151
lfemur -9.19325 -37.1504 -2.60859
ltibia -2.15218
lfoot -1.42965 24.8285
ltoes -21.3351
469
root -0.0505637 17.5605 8.5411 6.79752 26.3177 -8.63077
lowerback -1.23555 1.14995 8.51017
upperback -10.5807 2.23889 1.76597
thorax -10.4357 0.487986 -3.01715
lowerneck -7.61176 -5.9038 -2.56988
upperneck 25.2378 -8.22955 1.82546
head 9.36713 -3.84694 0.219174
rclavicle -5.84241e-015 -2.03382e-014
rhumerus -18.3189 27.4986 -100.596
rradius 133.76
rwrist 4.80171
rhand 20.8515 -35.4938
rfingers 7.12502
rthumb 45.3275 -58.8632
lclavicle -5.84241e-015 -2.03382e-014
lhumerus -25.9685 -29.414 107.028
lradius 127.249
lwrist 9.90642
lhand -8.08128 -19.1968
lfingers 7.12502
lthumb 17.8306 10.0058
rfemur 0.845214 18.8196 29.1432
rtibia 2.50764
rfoot -28.9349 -42.9654
rtoes 25.4275
lfemur -9.03094 -36.9308 -2.59476
ltibia -2.2825
lfoot -1.36334 24.9372
ltoes -21.4337
470
root -0.0517262 17.5608 8.52655 6.77048 26.0203 -8.65445
lowerback -1.20638 1.11184 8.44762
upperback -10.5586 2.18902 1.8222
thorax -10.4359 0.472016 -2.91915
lowerneck -7.56985 -5.84601 -2.56242
upperneck 25.2577 -8.1628 1.86888
head 9.36613 -3.81128 0.240975
rclavicle -5.01807e-014 -2.48481e-017
rhumerus -18.8394 27.0058 -101.12
rradius 133.777
rwrist 4.99354
rhand 21.3968 -34.7646
rfingers 7.12502
rthumb 45.834 -57.928
lclavicle -5.01807e-014 -2.48481e-017
lhumerus -26.0062 -29.2574 107.033
lradius 127.219
lwrist 9.92264
lhand -8.18434 -19.1768
lfingers 7.12502
lthumb 17.7315 10.0347
rfemur 0.857542 18.9879 29.1388
rtibia 2.45155
rfoot -28.7422 -42.8882
rtoes 25.1904
lfemur -8.84377 -36.9284 -2.64566
ltibia -2.41225
lfoot -1.31304 25.2578
ltoes -21.3674
